<mxfile host="drawio-plugin" modified="2023-11-05T03:08:17.860Z" agent="5.0 (Windows NT 6.2; Win64; x64) AppleWebKit/537.36 (KHTML, like Gecko) Chrome/104.0.5112.102 Safari/537.36" etag="85NiKMuuAJhTLKYI1Jv3" version="20.5.3" type="embed"><diagram id="FVe-dMKoKEPLYO1Fyh8D" name="Page-1"><mxGraphModel dx="729" dy="518" grid="1" gridSize="10" guides="1" tooltips="1" connect="1" arrows="1" fold="1" page="1" pageScale="1" pageWidth="850" pageHeight="1100" math="0" shadow="0"><root><mxCell id="0"/><mxCell id="1" parent="0"/><mxCell id="8" style="edgeStyle=orthogonalEdgeStyle;rounded=0;orthogonalLoop=1;jettySize=auto;html=1;exitX=1;exitY=0.5;exitDx=0;exitDy=0;entryX=0;entryY=0.5;entryDx=0;entryDy=0;" parent="1" source="2" target="7" edge="1"><mxGeometry relative="1" as="geometry"/></mxCell><mxCell id="2" value="nginx" style="rounded=0;whiteSpace=wrap;html=1;" parent="1" vertex="1"><mxGeometry x="230" y="220" width="120" height="60" as="geometry"/></mxCell><mxCell id="7" value="vue" style="rounded=0;whiteSpace=wrap;html=1;" parent="1" vertex="1"><mxGeometry x="420" y="220" width="120" height="60" as="geometry"/></mxCell><mxCell id="11" value="http" style="text;html=1;strokeColor=none;fillColor=none;align=center;verticalAlign=middle;whiteSpace=wrap;rounded=0;" parent="1" vertex="1"><mxGeometry x="580" y="220" width="60" height="30" as="geometry"/></mxCell><mxCell id="15" style="edgeStyle=orthogonalEdgeStyle;rounded=0;orthogonalLoop=1;jettySize=auto;html=1;exitX=1;exitY=0.3333333333333333;exitDx=0;exitDy=0;exitPerimeter=0;entryX=0;entryY=0.5;entryDx=0;entryDy=0;" parent="1" source="12" target="2" edge="1"><mxGeometry relative="1" as="geometry"/></mxCell><mxCell id="12" value="Actor" style="shape=umlActor;verticalLabelPosition=bottom;verticalAlign=top;html=1;outlineConnect=0;" parent="1" vertex="1"><mxGeometry x="100" y="220" width="30" height="60" as="geometry"/></mxCell><mxCell id="13" value="get Req" style="text;html=1;strokeColor=none;fillColor=none;align=center;verticalAlign=middle;whiteSpace=wrap;rounded=0;" parent="1" vertex="1"><mxGeometry x="160" y="210" width="60" height="30" as="geometry"/></mxCell><mxCell id="60" style="edgeStyle=orthogonalEdgeStyle;rounded=0;orthogonalLoop=1;jettySize=auto;html=1;entryX=0;entryY=0.5;entryDx=0;entryDy=0;" edge="1" parent="1" source="16" target="46"><mxGeometry relative="1" as="geometry"/></mxCell><mxCell id="69" style="edgeStyle=orthogonalEdgeStyle;rounded=0;orthogonalLoop=1;jettySize=auto;html=1;exitX=0.5;exitY=0.88;exitDx=0;exitDy=0;exitPerimeter=0;entryX=0.5;entryY=0;entryDx=0;entryDy=0;" edge="1" parent="1" source="16" target="68"><mxGeometry relative="1" as="geometry"/></mxCell><mxCell id="16" value="api-services" style="strokeWidth=2;html=1;shape=mxgraph.flowchart.multi-document;whiteSpace=wrap;" parent="1" vertex="1"><mxGeometry x="670" y="220" width="90" height="60" as="geometry"/></mxCell><mxCell id="41" value="" style="shape=flexArrow;endArrow=classic;startArrow=classic;html=1;rounded=0;exitX=1;exitY=0.5;exitDx=0;exitDy=0;entryX=0;entryY=0.5;entryDx=0;entryDy=0;entryPerimeter=0;" edge="1" parent="1" source="7" target="16"><mxGeometry width="100" height="100" relative="1" as="geometry"><mxPoint x="560" y="320" as="sourcePoint"/><mxPoint x="660" y="220" as="targetPoint"/></mxGeometry></mxCell><mxCell id="43" value="dao层" style="rounded=0;whiteSpace=wrap;html=1;" vertex="1" parent="1"><mxGeometry x="820" y="130" width="120" height="60" as="geometry"/></mxCell><mxCell id="44" value="es层" style="rounded=0;whiteSpace=wrap;html=1;" vertex="1" parent="1"><mxGeometry x="820" y="370" width="120" height="60" as="geometry"/></mxCell><mxCell id="45" value="cache层" style="rounded=0;whiteSpace=wrap;html=1;" vertex="1" parent="1"><mxGeometry x="820" y="250" width="120" height="60" as="geometry"/></mxCell><mxCell id="46" value="oss连接" style="rounded=0;whiteSpace=wrap;html=1;" vertex="1" parent="1"><mxGeometry x="820" y="30" width="120" height="60" as="geometry"/></mxCell><mxCell id="47" value="mysql" style="shape=cylinder3;whiteSpace=wrap;html=1;boundedLbl=1;backgroundOutline=1;size=15;" vertex="1" parent="1"><mxGeometry x="1110" y="110" width="60" height="80" as="geometry"/></mxCell><mxCell id="48" value="es" style="shape=cylinder3;whiteSpace=wrap;html=1;boundedLbl=1;backgroundOutline=1;size=15;" vertex="1" parent="1"><mxGeometry x="1120" y="370" width="60" height="80" as="geometry"/></mxCell><mxCell id="49" value="redis" style="shape=cylinder3;whiteSpace=wrap;html=1;boundedLbl=1;backgroundOutline=1;size=15;" vertex="1" parent="1"><mxGeometry x="1110" y="240" width="60" height="80" as="geometry"/></mxCell><mxCell id="50" value="qiniuOSS" style="shape=cylinder3;whiteSpace=wrap;html=1;boundedLbl=1;backgroundOutline=1;size=15;" vertex="1" parent="1"><mxGeometry x="1110" y="20" width="60" height="80" as="geometry"/></mxCell><mxCell id="57" value="" style="endArrow=classic;startArrow=classic;html=1;rounded=0;exitX=1;exitY=0.5;exitDx=0;exitDy=0;exitPerimeter=0;entryX=0;entryY=0.5;entryDx=0;entryDy=0;" edge="1" parent="1" source="16" target="43"><mxGeometry width="50" height="50" relative="1" as="geometry"><mxPoint x="940" y="290" as="sourcePoint"/><mxPoint x="990" y="240" as="targetPoint"/><Array as="points"/></mxGeometry></mxCell><mxCell id="58" value="" style="endArrow=classic;startArrow=classic;html=1;rounded=0;exitX=1;exitY=0.5;exitDx=0;exitDy=0;exitPerimeter=0;entryX=-0.008;entryY=0.397;entryDx=0;entryDy=0;entryPerimeter=0;" edge="1" parent="1" source="16" target="45"><mxGeometry width="50" height="50" relative="1" as="geometry"><mxPoint x="940" y="290" as="sourcePoint"/><mxPoint x="990" y="240" as="targetPoint"/></mxGeometry></mxCell><mxCell id="59" value="" style="endArrow=classic;startArrow=classic;html=1;rounded=0;exitX=1;exitY=0.5;exitDx=0;exitDy=0;exitPerimeter=0;entryX=0;entryY=0.5;entryDx=0;entryDy=0;" edge="1" parent="1" source="16" target="44"><mxGeometry width="50" height="50" relative="1" as="geometry"><mxPoint x="940" y="290" as="sourcePoint"/><mxPoint x="990" y="240" as="targetPoint"/></mxGeometry></mxCell><mxCell id="62" value="" style="endArrow=classic;startArrow=classic;html=1;rounded=0;exitX=0.5;exitY=1;exitDx=0;exitDy=0;entryX=0.5;entryY=0;entryDx=0;entryDy=0;" edge="1" parent="1" source="43" target="45"><mxGeometry width="50" height="50" relative="1" as="geometry"><mxPoint x="940" y="290" as="sourcePoint"/><mxPoint x="990" y="240" as="targetPoint"/></mxGeometry></mxCell><mxCell id="63" value="" style="endArrow=classic;startArrow=classic;html=1;rounded=0;entryX=0;entryY=0.5;entryDx=0;entryDy=0;entryPerimeter=0;exitX=1;exitY=0.5;exitDx=0;exitDy=0;" edge="1" parent="1" source="43" target="47"><mxGeometry width="50" height="50" relative="1" as="geometry"><mxPoint x="940" y="290" as="sourcePoint"/><mxPoint x="990" y="240" as="targetPoint"/></mxGeometry></mxCell><mxCell id="65" value="" style="endArrow=classic;startArrow=classic;html=1;rounded=0;entryX=0;entryY=0.5;entryDx=0;entryDy=0;entryPerimeter=0;exitX=1;exitY=0.5;exitDx=0;exitDy=0;" edge="1" parent="1" source="45" target="49"><mxGeometry width="50" height="50" relative="1" as="geometry"><mxPoint x="950" y="280" as="sourcePoint"/><mxPoint x="1120" y="160" as="targetPoint"/></mxGeometry></mxCell><mxCell id="66" value="" style="endArrow=classic;startArrow=classic;html=1;rounded=0;entryX=0;entryY=0.5;entryDx=0;entryDy=0;entryPerimeter=0;exitX=1;exitY=0.5;exitDx=0;exitDy=0;" edge="1" parent="1" source="46" target="50"><mxGeometry width="50" height="50" relative="1" as="geometry"><mxPoint x="960" y="180" as="sourcePoint"/><mxPoint x="1130" y="170" as="targetPoint"/></mxGeometry></mxCell><mxCell id="67" value="" style="endArrow=classic;startArrow=classic;html=1;rounded=0;exitX=1;exitY=0.5;exitDx=0;exitDy=0;" edge="1" parent="1" source="44"><mxGeometry width="50" height="50" relative="1" as="geometry"><mxPoint x="970" y="190" as="sourcePoint"/><mxPoint x="1120" y="410" as="targetPoint"/></mxGeometry></mxCell><mxCell id="68" value="log" style="shape=parallelogram;perimeter=parallelogramPerimeter;whiteSpace=wrap;html=1;fixedSize=1;" vertex="1" parent="1"><mxGeometry x="655" y="450" width="120" height="60" as="geometry"/></mxCell></root></mxGraphModel></diagram></mxfile>